<svg xmlns="http://www.w3.org/2000/svg" xmlns:xlink="http://www.w3.org/1999/xlink" width="320" zoomAndPan="magnify" viewBox="0 0 240 239.999995" height="320" preserveAspectRatio="xMidYMid meet" version="1.0"><defs><g/><clipPath id="id1"><path d="M 34 165.535156 L 220 165.535156 L 220 171.535156 L 34 171.535156 Z M 34 165.535156 " clip-rule="nonzero"/></clipPath></defs><g fill="#ff66c4" fill-opacity="1"><g transform="translate(36.984375, 137.553147)"><g><path d="M 40.070312 -68.796875 C 36.945312 -69.542969 36.402344 -69.339844 35.449219 -67.03125 C 35.109375 -66.148438 34.769531 -65.265625 34.5 -64.382812 C 31.851562 -56.433594 29.066406 -48.558594 26.484375 -40.542969 C 24.515625 -34.429688 21.867188 -28.589844 18.675781 -23.023438 C 15.078125 -16.84375 10.664062 -11.476562 4.820312 -7.335938 C 3.871094 -6.65625 2.921875 -6.042969 1.902344 -5.570312 C 1.492188 -5.363281 1.019531 -5.363281 0.476562 -5.296875 C -0.0664062 -6.722656 0.273438 -7.945312 0.746094 -9.03125 C 2.582031 -12.972656 4.957031 -16.433594 8.082031 -19.355469 C 8.691406 -19.898438 9.441406 -20.304688 9.984375 -20.714844 C 10.933594 -20.441406 11.679688 -20.238281 12.359375 -19.964844 C 12.902344 -21.054688 12.5625 -21.597656 11.75 -21.867188 C 10.050781 -22.34375 8.421875 -22.003906 6.996094 -21.121094 C 2.308594 -18.066406 -0.882812 -13.785156 -3.054688 -8.761719 C -3.191406 -8.625 -3.191406 -8.421875 -3.261719 -8.21875 C -3.9375 -4.957031 -2.648438 -3.734375 0.40625 -3.597656 C 0.882812 -3.53125 1.425781 -3.734375 1.902344 -3.804688 C 3.734375 -4.144531 5.230469 -5.027344 6.585938 -6.113281 C 10.664062 -9.234375 14.261719 -12.765625 17.316406 -16.84375 C 17.859375 -17.65625 18.199219 -18.742188 19.421875 -19.152344 C 19.761719 -17.929688 19.152344 -16.84375 18.878906 -15.824219 C 17.25 -9.914062 15.550781 -4.074219 13.988281 1.832031 C 13.175781 5.027344 12.5625 8.285156 11.953125 11.546875 C 11.75 12.496094 11.476562 13.515625 12.359375 14.601562 C 12.765625 14.328125 13.175781 14.195312 13.378906 13.921875 C 13.71875 13.175781 13.988281 12.429688 14.261719 11.613281 C 19.695312 -8.015625 26.28125 -27.300781 33.003906 -46.519531 C 35.042969 -52.359375 37.082031 -58.269531 39.050781 -64.109375 C 39.523438 -65.601562 40.273438 -66.960938 40.070312 -68.796875 Z M 40.070312 -68.796875 "/></g></g></g><g fill="#ff66c4" fill-opacity="1"><g transform="translate(62.450671, 137.553147)"><g><path d="M 23.496094 -11.136719 C 23.023438 -10.730469 22.480469 -10.390625 22.070312 -9.847656 C 19.289062 -6.65625 15.960938 -4.277344 12.292969 -2.582031 C 11.070312 -2.039062 9.710938 -1.765625 8.351562 -1.5625 C 6.925781 -1.425781 5.773438 -2.242188 5.027344 -3.597656 C 4.347656 -4.753906 3.871094 -6.042969 4.210938 -7.808594 C 6.996094 -8.828125 9.234375 -10.390625 11.136719 -12.632812 C 12.019531 -13.582031 12.835938 -14.738281 13.3125 -15.960938 C 14.195312 -18.199219 13.445312 -20.101562 11.476562 -21.054688 C 9.03125 -22.140625 6.722656 -21.730469 4.820312 -19.695312 C 1.765625 -16.503906 -0.136719 -12.5625 -0.40625 -7.878906 C -0.609375 -3.734375 1.359375 -0.882812 4.890625 0.203125 C 7.808594 1.019531 10.664062 0.882812 13.445312 -0.476562 C 16.503906 -1.902344 19.289062 -3.9375 21.730469 -6.585938 C 22.480469 -7.46875 23.15625 -8.488281 23.769531 -9.574219 C 24.042969 -9.914062 23.972656 -10.527344 24.042969 -11 C 23.703125 -11.136719 23.566406 -11.207031 23.496094 -11.136719 Z M 9.03125 -18.609375 C 9.644531 -17.792969 9.371094 -16.910156 8.964844 -16.09375 C 8.015625 -14.195312 6.792969 -12.5625 4.957031 -11.207031 C 5.5 -14.871094 6.722656 -17.046875 9.03125 -18.609375 Z M 9.03125 -18.609375 "/></g></g></g><g fill="#ff66c4" fill-opacity="1"><g transform="translate(83.163263, 137.553147)"><g><path d="M 26.894531 -16.230469 C 24.789062 -14.804688 22.613281 -13.71875 20.101562 -13.242188 C 18.402344 -12.972656 16.773438 -13.105469 15.550781 -14.804688 C 16.707031 -17.453125 17.859375 -19.898438 18.949219 -22.34375 C 19.289062 -23.089844 19.625 -24.042969 18.878906 -24.71875 C 18.132812 -25.332031 17.183594 -25.398438 16.230469 -25.058594 C 15.753906 -24.925781 15.210938 -24.71875 14.871094 -24.378906 C 12.222656 -21.867188 10.527344 -18.878906 10.730469 -15.078125 C 10.796875 -14.328125 10.796875 -13.652344 10.457031 -13.039062 C 8.21875 -9.441406 5.976562 -5.773438 3.734375 -2.242188 C 3.464844 -1.765625 3.125 -1.085938 2.039062 -1.492188 C 2.171875 -3.261719 2.242188 -5.09375 2.511719 -6.925781 C 2.851562 -9.441406 3.191406 -12.019531 3.464844 -14.601562 C 3.53125 -15.144531 3.328125 -15.6875 3.125 -16.570312 C 2.582031 -16.164062 2.171875 -16.027344 1.96875 -15.753906 C 1.628906 -15.144531 1.289062 -14.464844 1.15625 -13.71875 C 0.339844 -9.914062 -0.339844 -6.042969 -1.085938 -2.171875 C -1.222656 -1.699219 -1.15625 -1.15625 -1.15625 -0.609375 C -0.949219 0.949219 0.0664062 1.832031 1.5625 1.699219 C 2.511719 1.5625 3.464844 1.289062 4.144531 0.746094 C 5.09375 0.136719 5.976562 -0.679688 6.65625 -1.5625 C 8.488281 -4.074219 10.253906 -6.585938 12.019531 -9.167969 C 12.632812 -10.050781 13.242188 -11 13.785156 -11.816406 C 21.9375 -11.136719 26.351562 -12.632812 29.679688 -16.976562 C 28.523438 -17.519531 27.707031 -16.773438 26.894531 -16.230469 Z M 26.894531 -16.230469 "/></g></g></g><g fill="#ff66c4" fill-opacity="1"><g transform="translate(108.765377, 137.553147)"><g><path d="M 22.207031 -12.5625 C 22.613281 -14.738281 22.953125 -16.84375 23.226562 -19.015625 C 23.363281 -20.171875 22.75 -20.714844 21.597656 -20.78125 C 20.714844 -20.847656 19.964844 -20.644531 19.289062 -20.035156 C 18.878906 -19.625 18.402344 -19.21875 17.859375 -18.675781 C 17.792969 -19.152344 17.65625 -19.421875 17.726562 -19.695312 C 17.929688 -22.070312 17.25 -23.023438 15.007812 -23.15625 C 13.988281 -23.226562 12.902344 -23.089844 12.019531 -22.683594 C 10.730469 -22.070312 9.441406 -21.324219 8.351562 -20.375 C 4.210938 -16.433594 1.222656 -11.75 -0.609375 -6.382812 C -0.949219 -5.433594 -1.085938 -4.347656 -1.15625 -3.328125 C -1.222656 -1.359375 -0.40625 -0.542969 1.628906 -0.476562 C 3.125 -0.40625 4.550781 -0.949219 5.703125 -1.765625 C 7.265625 -2.921875 8.828125 -4.144531 10.253906 -5.5 C 12.222656 -7.46875 14.058594 -9.574219 15.960938 -11.613281 C 16.503906 -12.222656 17.113281 -12.765625 17.929688 -13.582031 C 17.996094 -12.765625 18.066406 -12.429688 18.066406 -12.019531 C 17.792969 -9.78125 17.519531 -7.539062 17.25 -5.296875 C 16.976562 -2.445312 17.183594 0.339844 17.726562 3.054688 C 18.335938 5.703125 19.289062 6.316406 22.207031 6.179688 C 20.917969 5.363281 20.507812 4.144531 20.507812 2.785156 C 20.578125 0.0664062 20.578125 -2.582031 20.847656 -5.296875 C 21.121094 -7.742188 21.800781 -10.117188 22.207031 -12.5625 Z M 2.511719 -2.714844 C 2.308594 -5.230469 3.394531 -6.996094 4.277344 -8.828125 C 7.128906 -14.328125 10.527344 -18.539062 13.71875 -20.507812 C 15.007812 -18.742188 13.3125 -16.570312 14.738281 -15.078125 C 11.882812 -10.117188 6.453125 -4.550781 2.511719 -2.714844 Z M 2.511719 -2.714844 "/></g></g></g><g fill="#ff66c4" fill-opacity="1"><g transform="translate(134.774957, 137.553147)"><g><path d="M 19.898438 -19.21875 C 19.421875 -20.984375 18.335938 -21.800781 16.503906 -21.664062 C 15.078125 -21.527344 13.921875 -20.984375 12.972656 -19.898438 C 11.273438 -17.859375 9.574219 -15.753906 7.808594 -13.71875 C 7.402344 -13.175781 6.925781 -12.632812 6.042969 -11.679688 C 6.316406 -15.417969 8.082031 -18.199219 8.285156 -21.527344 C 6.925781 -22.003906 6.113281 -21.800781 5.570312 -20.847656 C 5.160156 -20.238281 4.820312 -19.558594 4.550781 -18.949219 C 2.445312 -13.988281 0.339844 -9.03125 -1.765625 -4.074219 C -2.105469 -3.261719 -2.375 -2.375 -2.582031 -1.492188 C -2.921875 -0.0664062 -2.242188 0.746094 -0.746094 0.746094 C 0.273438 0.746094 1.289062 0.476562 2.039062 -0.339844 C 2.921875 -1.15625 3.804688 -2.039062 4.550781 -3.054688 C 6.113281 -5.027344 7.46875 -7.0625 8.964844 -9.03125 C 10.796875 -11.476562 12.699219 -13.921875 14.667969 -16.367188 C 15.078125 -16.910156 15.621094 -17.316406 16.367188 -17.929688 C 16.707031 -16.910156 16.976562 -16.164062 17.183594 -15.417969 C 17.386719 -14.804688 17.453125 -14.195312 17.792969 -13.652344 C 17.996094 -13.3125 18.539062 -12.972656 18.949219 -12.902344 C 19.152344 -12.902344 19.625 -13.378906 19.761719 -13.71875 C 20.304688 -15.550781 20.304688 -17.386719 19.898438 -19.21875 Z M 19.898438 -19.21875 "/></g></g></g><g fill="#ff66c4" fill-opacity="1"><g transform="translate(158.543499, 137.553147)"><g><path d="M 22.207031 -12.5625 C 22.613281 -14.738281 22.953125 -16.84375 23.226562 -19.015625 C 23.363281 -20.171875 22.75 -20.714844 21.597656 -20.78125 C 20.714844 -20.847656 19.964844 -20.644531 19.289062 -20.035156 C 18.878906 -19.625 18.402344 -19.21875 17.859375 -18.675781 C 17.792969 -19.152344 17.65625 -19.421875 17.726562 -19.695312 C 17.929688 -22.070312 17.25 -23.023438 15.007812 -23.15625 C 13.988281 -23.226562 12.902344 -23.089844 12.019531 -22.683594 C 10.730469 -22.070312 9.441406 -21.324219 8.351562 -20.375 C 4.210938 -16.433594 1.222656 -11.75 -0.609375 -6.382812 C -0.949219 -5.433594 -1.085938 -4.347656 -1.15625 -3.328125 C -1.222656 -1.359375 -0.40625 -0.542969 1.628906 -0.476562 C 3.125 -0.40625 4.550781 -0.949219 5.703125 -1.765625 C 7.265625 -2.921875 8.828125 -4.144531 10.253906 -5.5 C 12.222656 -7.46875 14.058594 -9.574219 15.960938 -11.613281 C 16.503906 -12.222656 17.113281 -12.765625 17.929688 -13.582031 C 17.996094 -12.765625 18.066406 -12.429688 18.066406 -12.019531 C 17.792969 -9.78125 17.519531 -7.539062 17.25 -5.296875 C 16.976562 -2.445312 17.183594 0.339844 17.726562 3.054688 C 18.335938 5.703125 19.289062 6.316406 22.207031 6.179688 C 20.917969 5.363281 20.507812 4.144531 20.507812 2.785156 C 20.578125 0.0664062 20.578125 -2.582031 20.847656 -5.296875 C 21.121094 -7.742188 21.800781 -10.117188 22.207031 -12.5625 Z M 2.511719 -2.714844 C 2.308594 -5.230469 3.394531 -6.996094 4.277344 -8.828125 C 7.128906 -14.328125 10.527344 -18.539062 13.71875 -20.507812 C 15.007812 -18.742188 13.3125 -16.570312 14.738281 -15.078125 C 11.882812 -10.117188 6.453125 -4.550781 2.511719 -2.714844 Z M 2.511719 -2.714844 "/></g></g></g><g fill="#ff66c4" fill-opacity="1"><g transform="translate(184.55308, 137.553147)"><g><path d="M 35.652344 -43.464844 C 33.34375 -43.667969 31.105469 -43.871094 28.792969 -43.734375 C 23.769531 -43.601562 18.675781 -43.261719 13.652344 -42.988281 C 12.972656 -42.988281 12.292969 -43.125 11.476562 -43.191406 C 11.953125 -45.027344 12.359375 -46.65625 12.765625 -48.21875 C 13.175781 -49.78125 14.125 -51.207031 14.058594 -52.972656 C 12.429688 -53.652344 11.273438 -53.109375 10.59375 -51.816406 C 9.78125 -50.253906 9.101562 -48.625 8.488281 -46.996094 C 8.015625 -45.570312 7.605469 -44.074219 7.128906 -42.511719 C 5.160156 -42.242188 3.328125 -42.039062 1.492188 -41.765625 C -1.628906 -41.359375 -4.6875 -40.953125 -7.742188 -40.40625 C -8.898438 -40.203125 -10.1875 -40.136719 -11 -38.914062 C -9.371094 -38.03125 -9.371094 -38.03125 -8.421875 -38.167969 C -4.074219 -38.710938 0.203125 -39.253906 4.480469 -39.796875 C 5.027344 -39.863281 5.636719 -39.660156 6.316406 -39.59375 C 6.113281 -38.574219 5.910156 -37.757812 5.703125 -37.011719 C 3.191406 -27.300781 0.816406 -17.519531 -1.15625 -7.742188 C -2.648438 -0.542969 -4.074219 6.65625 -4.890625 13.988281 C -4.957031 15.007812 -4.957031 16.027344 -4.890625 17.046875 C -4.820312 17.519531 -4.550781 18.066406 -3.667969 17.929688 C -3.464844 17.113281 -3.191406 16.300781 -2.988281 15.417969 C -2.648438 13.582031 -2.308594 11.75 -1.96875 9.914062 C 1.5625 -6.453125 6.246094 -22.546875 10.324219 -38.777344 C 10.457031 -39.390625 10.796875 -39.863281 11.070312 -40.40625 C 19.832031 -41.222656 28.386719 -42.242188 37.148438 -42.785156 C 36.671875 -43.054688 36.128906 -43.464844 35.652344 -43.464844 Z M 35.652344 -43.464844 "/></g></g></g><g fill="#ff66c4" fill-opacity="1"><g transform="translate(116.367183, 201.303143)"><g/></g></g><g clip-path="url(#id1)"><path fill="#ff66c4" d="M 36.265625 171.535156 L 35.234375 171.535156 C 34.851562 171.535156 34.59375 171.261719 34.59375 170.988281 C 34.59375 170.582031 34.851562 170.308594 35.234375 170.308594 C 38.328125 170.308594 41.417969 170.308594 44.507812 170.308594 C 46.054688 170.308594 47.726562 170.308594 49.273438 170.171875 C 50.820312 170.035156 52.492188 170.035156 54.039062 169.898438 C 55.96875 169.761719 58.03125 169.625 59.964844 169.488281 C 61.894531 169.355469 63.828125 169.21875 65.757812 169.082031 L 71.425781 168.671875 L 72.328125 168.671875 L 75.933594 168.398438 C 79.796875 168.125 83.660156 167.71875 87.652344 167.582031 C 91.644531 167.445312 95.378906 167.308594 99.113281 167.308594 L 181.410156 167.308594 C 185.273438 167.308594 189.136719 167.308594 193 167.171875 C 197.378906 167.035156 201.757812 166.898438 206.265625 166.488281 C 208.582031 166.355469 210.773438 166.082031 213.089844 165.945312 L 216.179688 165.671875 C 217.082031 165.671875 218.113281 165.535156 219.015625 165.535156 C 219.398438 165.535156 219.65625 165.808594 219.65625 166.21875 C 219.65625 166.625 219.398438 166.898438 219.015625 166.898438 C 218.113281 166.898438 217.082031 167.035156 216.179688 167.035156 L 210.386719 167.582031 C 208.453125 167.71875 206.523438 167.855469 204.589844 167.988281 C 202.65625 168.125 200.726562 168.125 198.664062 168.261719 C 196.605469 168.398438 194.800781 168.398438 192.742188 168.535156 C 188.75 168.671875 184.757812 168.671875 180.765625 168.671875 L 98.726562 168.671875 C 93.832031 168.671875 88.941406 168.808594 84.046875 169.082031 L 84.175781 169.082031 L 73.613281 169.898438 L 73.742188 169.898438 L 71.554688 169.898438 C 69.234375 170.035156 66.917969 170.308594 64.46875 170.445312 C 62.023438 170.582031 59.964844 170.71875 57.773438 170.855469 C 55.84375 170.988281 53.910156 171.125 51.976562 171.261719 C 50.046875 171.398438 48.371094 171.398438 46.699219 171.535156 Z M 36.265625 171.535156 " fill-opacity="1" fill-rule="nonzero"/></g></svg>
