<svg xmlns="http://www.w3.org/2000/svg" xmlns:xlink="http://www.w3.org/1999/xlink" width="500" zoomAndPan="magnify" viewBox="0 0 375 374.999991" height="500" preserveAspectRatio="xMidYMid meet" version="1.0"><defs><clipPath id="id1"><path d="M 11.53125 80 L 366 80 L 366 265 L 11.53125 265 Z M 11.53125 80 " clip-rule="nonzero"/></clipPath></defs><rect x="-37.5" width="450" fill="#ffffff" y="-37.499999" height="449.999989" fill-opacity="1"/><rect x="-37.5" width="450" fill="#ffffff" y="-37.499999" height="449.999989" fill-opacity="1"/><rect x="-37.5" width="450" fill="#ffffff" y="-37.499999" height="449.999989" fill-opacity="1"/><rect x="-37.5" width="450" fill="#ffffff" y="-37.499999" height="449.999989" fill-opacity="1"/><g clip-path="url(#id1)"><path fill="#00678c" d="M 10.875 248.128906 L 22.574219 248.128906 L 22.574219 201.804688 L 40.851562 242.195312 C 42.917969 247.050781 45.894531 248.847656 51.652344 248.847656 C 57.410156 248.847656 60.207031 247.046875 62.34375 242.195312 L 80.527344 201.804688 L 80.527344 248.128906 L 92.320312 248.128906 L 92.320312 201.804688 C 92.320312 197.308594 90.515625 195.148438 86.738281 193.976562 C 77.824219 191.28125 71.882812 193.617188 69.183594 199.644531 L 51.273438 239.582031 L 33.992188 199.644531 C 31.378906 193.617188 25.347656 191.28125 16.347656 193.976562 C 12.65625 195.148438 10.855469 197.308594 10.855469 201.804688 L 10.855469 248.128906 Z M 102.058594 210.441406 L 113.851562 210.441406 L 113.851562 235.898438 C 113.761719 237.335938 114.300781 240.574219 120.710938 240.664062 C 124.039062 240.753906 146.09375 240.664062 146.273438 240.664062 L 146.273438 210.261719 L 158.0625 210.261719 L 158.0625 251.910156 C 158.0625 262.164062 145.355469 264.410156 139.429688 264.5 L 102.351562 264.5 L 102.351562 256.679688 L 139.527344 256.679688 C 147.085938 255.867188 146.1875 252.09375 146.1875 250.832031 L 146.1875 247.773438 L 121.25 247.773438 C 109.640625 247.679688 102.167969 242.554688 102.078125 236.707031 L 102.078125 210.4375 Z M 354.988281 180.9375 C 347.789062 180.753906 342.207031 181.476562 337.523438 183.457031 C 336.175781 184 334.015625 184 333.835938 185.707031 C 334.558594 186.421875 334.644531 187.59375 335.273438 188.585938 C 336.355469 190.386719 338.246094 192.808594 339.957031 194.070312 C 341.847656 195.511719 343.738281 196.949219 345.714844 198.207031 C 349.226562 200.363281 353.1875 201.625 356.605469 203.785156 C 358.585938 205.042969 360.566406 206.664062 362.546875 208.015625 C 363.554688 208.734375 364.167969 209.90625 365.429688 210.351562 L 365.429688 210.082031 C 364.796875 209.273438 364.617188 208.105469 363.988281 207.203125 C 363.085938 206.304688 362.1875 205.492188 361.285156 204.59375 C 358.675781 201.085938 355.4375 198.027344 351.925781 195.511719 C 349.042969 193.53125 342.746094 190.832031 341.574219 187.507812 L 341.398438 187.324219 C 343.375 187.144531 345.714844 186.421875 347.609375 185.882812 C 350.671875 185.078125 353.457031 185.253906 356.605469 184.445312 C 358.046875 184.082031 359.488281 183.636719 360.929688 183.1875 L 360.929688 182.378906 C 359.308594 180.761719 358.140625 178.601562 356.429688 177.074219 C 351.839844 173.113281 346.796875 169.246094 341.574219 166.007812 C 338.785156 164.210938 335.183594 163.039062 332.214844 161.511719 C 331.132812 160.972656 329.332031 160.703125 328.703125 159.804688 C 327.082031 157.828125 326.183594 155.214844 325.011719 152.875 C 322.402344 147.929688 319.882812 142.441406 317.632812 137.222656 C 316.011719 133.714844 315.019531 130.207031 313.042969 126.96875 C 303.769531 111.679688 293.6875 102.414062 278.207031 93.328125 C 274.875 91.4375 270.917969 90.625 266.707031 89.636719 L 259.957031 89.273438 C 258.511719 88.644531 257.074219 86.9375 255.8125 86.125 C 250.683594 82.886719 237.449219 75.871094 233.667969 85.136719 C 231.238281 90.984375 237.269531 96.742188 239.316406 99.710938 C 240.851562 101.777344 242.828125 104.117188 243.910156 106.457031 C 244.515625 107.984375 244.71875 109.605469 245.347656 111.226562 C 246.789062 115.183594 248.140625 119.589844 250.03125 123.28125 C 251.039062 125.171875 252.097656 127.152344 253.359375 128.859375 C 254.078125 129.847656 255.339844 130.300781 255.609375 131.917969 C 254.347656 133.71875 254.261719 136.414062 253.539062 138.664062 C 250.296875 148.832031 251.558594 161.421875 256.148438 168.886719 C 257.589844 171.136719 260.992188 176.085938 265.601562 174.195312 C 269.652344 172.574219 268.75 167.449219 269.917969 162.949219 C 270.191406 161.871094 270.011719 161.152344 270.550781 160.429688 L 270.550781 160.609375 L 274.242188 168.078125 C 277.03125 172.484375 281.894531 177.074219 285.941406 180.132812 C 288.101562 181.753906 289.8125 184.542969 292.511719 185.53125 L 292.511719 185.257812 L 292.332031 185.257812 C 291.792969 184.453125 290.980469 184.089844 290.261719 183.460938 C 288.640625 181.839844 286.84375 179.859375 285.582031 178.0625 C 281.800781 173.027344 278.472656 167.449219 275.503906 161.691406 C 274.058594 158.902344 272.796875 155.84375 271.632812 153.058594 C 271.085938 151.976562 271.085938 150.355469 270.191406 149.820312 C 268.839844 151.792969 266.859375 153.507812 265.867188 155.9375 C 264.15625 159.804688 263.976562 164.570312 263.347656 169.519531 C 262.984375 169.609375 263.148438 169.519531 262.984375 169.699219 C 260.109375 168.980469 259.117188 166.011719 258.035156 163.496094 C 255.335938 157.105469 254.886719 146.851562 257.226562 139.476562 C 257.855469 137.585938 260.558594 131.648438 259.480469 129.851562 C 258.933594 128.140625 257.140625 127.152344 256.148438 125.804688 C 254.976562 124.09375 253.71875 121.9375 252.910156 120.046875 C 250.75 115.007812 249.671875 109.433594 247.328125 104.394531 C 246.246094 102.054688 244.355469 99.625 242.824219 97.46875 C 241.113281 95.039062 239.226562 93.328125 237.875 90.453125 C 237.425781 89.464844 236.796875 87.84375 237.515625 86.761719 C 237.695312 86.042969 238.058594 85.773438 238.773438 85.59375 C 239.945312 84.605469 243.277344 85.863281 244.449219 86.398438 C 247.777344 87.75 250.566406 89.007812 253.355469 90.894531 C 254.617188 91.796875 255.96875 93.503906 257.589844 93.957031 L 259.480469 93.957031 C 262.363281 94.585938 265.601562 94.136719 268.296875 94.945312 C 273.070312 96.476562 277.386719 98.722656 281.261719 101.152344 C 293.050781 108.621094 302.777344 119.234375 309.34375 131.921875 C 310.425781 133.988281 310.875 135.878906 311.867188 138.035156 C 313.757812 142.445312 316.097656 146.941406 317.984375 151.261719 C 319.878906 155.492188 321.675781 159.8125 324.375 163.320312 C 325.730469 165.207031 331.128906 166.195312 333.554688 167.1875 C 335.359375 167.992188 338.144531 168.71875 339.769531 169.707031 C 342.828125 171.59375 345.890625 173.753906 348.769531 175.824219 C 350.207031 176.898438 354.710938 179.148438 354.976562 180.945312 Z M 263.195312 102.765625 C 261.945312 102.757812 260.714844 102.90625 259.503906 103.214844 L 259.503906 103.398438 L 259.683594 103.398438 C 260.402344 104.835938 261.664062 105.828125 262.5625 107.085938 L 264.636719 111.40625 L 264.8125 111.226562 C 266.074219 110.324219 266.707031 108.886719 266.707031 106.730469 C 266.164062 106.101562 266.078125 105.46875 265.625 104.839844 C 265.085938 103.941406 263.914062 103.488281 263.195312 102.769531 Z M 263.195312 102.765625 " fill-opacity="1" fill-rule="evenodd"/></g><path fill="#ce8b2c" d="M 167.050781 248.128906 L 200.894531 248.128906 C 204.855469 248.128906 208.636719 247.324219 211.695312 245.882812 C 216.828125 243.542969 219.257812 240.398438 219.257812 236.257812 L 219.257812 227.625 C 219.257812 224.296875 216.46875 221.148438 210.890625 218.988281 C 208.007812 217.910156 204.40625 217.28125 200.898438 217.28125 L 186.671875 217.28125 C 181.902344 217.28125 179.652344 215.839844 179.019531 212.695312 C 178.933594 212.335938 178.933594 211.972656 178.933594 211.613281 L 178.933594 206.304688 C 178.933594 206.035156 178.933594 205.675781 179.019531 205.320312 C 179.652344 202.890625 180.910156 202.257812 185.074219 201.808594 L 219.726562 201.808594 L 219.726562 193.980469 L 186.78125 193.980469 C 182.011719 193.980469 179.492188 194.253906 177.238281 194.972656 C 170.308594 197.132812 167.246094 200.550781 167.246094 206.574219 L 167.246094 213.414062 C 167.246094 218.71875 173.1875 223.21875 183.269531 224.296875 C 184.347656 224.390625 185.519531 224.390625 186.691406 224.390625 L 198.84375 224.390625 C 199.292969 224.390625 199.742188 224.390625 200.101562 224.480469 C 203.792969 224.839844 205.410156 225.46875 206.492188 226.8125 C 207.210938 227.535156 207.394531 228.164062 207.394531 228.976562 L 207.394531 235.808594 C 207.394531 236.617188 206.851562 237.699219 205.773438 238.597656 C 204.691406 239.496094 202.976562 240.125 200.730469 240.21875 C 200.277344 240.21875 200.011719 240.308594 199.558594 240.308594 L 167.050781 240.308594 Z M 292.523438 234.550781 C 292.523438 242.554688 298.578125 247.050781 310.621094 247.953125 C 311.792969 248.042969 312.871094 248.128906 314.042969 248.128906 L 344.644531 248.128906 L 344.644531 240.308594 L 313.773438 240.308594 C 306.929688 240.308594 304.320312 238.597656 304.320312 234.460938 L 304.320312 193.980469 L 292.496094 193.980469 L 292.496094 234.550781 Z M 226.726562 234.90625 L 226.726562 207.023438 C 226.726562 199.917969 231.765625 195.597656 241.582031 194.25 C 242.660156 194.160156 243.738281 194.070312 244.726562 194.070312 L 267.046875 194.070312 C 268.21875 194.070312 269.210938 194.160156 270.382812 194.25 C 280.191406 195.597656 285.140625 199.914062 285.140625 207.023438 L 285.140625 234.90625 C 285.140625 240.664062 283.074219 243.722656 278.210938 245.792969 L 289.730469 256.226562 L 276.140625 256.226562 L 266.777344 247.773438 L 257.324219 248.3125 L 244.722656 248.3125 C 242.40625 248.300781 240.125 248 237.882812 247.414062 C 230.417969 245.34375 226.726562 241.386719 226.726562 234.90625 Z M 239.414062 234.28125 C 239.414062 234.640625 239.617188 234.996094 239.6875 235.453125 C 240.316406 238.6875 243.375 240.488281 248.054688 240.488281 L 258.679688 240.488281 L 248.960938 231.671875 L 262.550781 231.671875 L 271.101562 239.410156 C 272.722656 238.507812 273.710938 237.246094 274.070312 235.628906 C 274.164062 235.269531 274.164062 234.820312 274.164062 234.460938 L 274.164062 207.742188 C 274.164062 207.382812 274.164062 207.027344 274.070312 206.664062 C 273.441406 203.605469 270.382812 201.898438 265.792969 201.898438 L 248.058594 201.898438 C 242.835938 201.898438 239.417969 204.148438 239.417969 207.742188 Z M 239.414062 234.28125 " fill-opacity="1" fill-rule="evenodd"/></svg>