<svg xmlns="http://www.w3.org/2000/svg" xmlns:xlink="http://www.w3.org/1999/xlink" width="500" zoomAndPan="magnify" viewBox="0 0 375 374.999991" height="500" preserveAspectRatio="xMidYMid meet" version="1.0"><defs><clipPath id="id1"><path d="M 42.988281 32.925781 L 349.738281 32.925781 L 349.738281 339.675781 L 42.988281 339.675781 Z M 42.988281 32.925781 " clip-rule="nonzero"/></clipPath></defs><g clip-path="url(#id1)"><path fill="#007acc" d="M 42.988281 186.300781 L 42.988281 32.925781 L 349.738281 32.925781 L 349.738281 339.675781 L 42.988281 339.675781 " fill-opacity="1" fill-rule="nonzero"/></g><path fill="#ffffff" d="M 110.242188 186.839844 L 110.242188 199.339844 L 150.121094 199.339844 L 150.121094 312.835938 L 178.417969 312.835938 L 178.417969 199.339844 L 218.296875 199.339844 L 218.296875 187.070312 C 218.296875 180.167969 218.296875 174.570312 217.988281 174.414062 C 217.988281 174.183594 193.679688 174.109375 164.152344 174.109375 L 110.472656 174.339844 L 110.472656 186.914062 Z M 289.460938 174.03125 C 297.285156 175.871094 303.265625 179.398438 308.632812 185 C 311.472656 188.066406 315.6875 193.433594 315.996094 194.8125 C 315.996094 195.273438 302.726562 204.246094 294.675781 209.230469 C 294.371094 209.460938 293.140625 208.15625 291.914062 206.164062 C 287.925781 200.488281 283.863281 198.035156 277.5 197.574219 C 268.296875 196.960938 262.160156 201.792969 262.160156 209.84375 C 262.160156 212.300781 262.621094 213.679688 263.542969 215.671875 C 265.613281 219.890625 269.445312 222.421875 281.332031 227.636719 C 303.265625 237.070312 312.773438 243.28125 318.527344 252.175781 C 325.042969 262.144531 326.5 277.789062 322.128906 289.523438 C 317.222656 302.328125 305.257812 310.996094 288.15625 313.832031 C 282.789062 314.753906 270.519531 314.601562 264.769531 313.601562 C 252.5 311.300781 240.765625 305.167969 233.554688 297.269531 C 230.71875 294.203125 225.273438 285.996094 225.582031 285.457031 L 228.496094 283.617188 L 239.996094 276.945312 L 248.664062 271.886719 L 250.65625 274.570312 C 253.1875 278.558594 258.863281 283.925781 262.160156 285.765625 C 272.128906 290.902344 285.472656 290.214844 292.070312 284.230469 C 294.90625 281.625 296.132812 278.863281 296.132812 275.03125 C 296.132812 271.5 295.597656 269.890625 293.832031 267.207031 C 291.378906 263.832031 286.46875 261.070312 272.667969 254.9375 C 256.792969 248.1875 250.042969 243.894531 243.753906 237.300781 C 240.152344 233.3125 236.855469 227.101562 235.320312 221.960938 C 234.167969 217.515625 233.785156 206.625 234.859375 202.253906 C 238.15625 186.914062 249.738281 176.179688 266.300781 173.113281 C 271.671875 172.039062 284.324219 172.5 289.613281 173.878906 Z M 289.460938 174.03125 " fill-opacity="1" fill-rule="nonzero"/></svg>